<?xml version="1.0" encoding="UTF-8" standalone="no"?>
<svg
   xmlns:dc="http://purl.org/dc/elements/1.1/"
   xmlns:cc="http://creativecommons.org/ns#"
   xmlns:rdf="http://www.w3.org/1999/02/22-rdf-syntax-ns#"
   xmlns:svg="http://www.w3.org/2000/svg"
   xmlns="http://www.w3.org/2000/svg"
   xmlns:sodipodi="http://sodipodi.sourceforge.net/DTD/sodipodi-0.dtd"
   xmlns:inkscape="http://www.inkscape.org/namespaces/inkscape"
   width="210mm"
   height="297mm"
   viewBox="0 0 210 297"
   version="1.1"
   id="svg139"
   inkscape:version="1.0.2-2 (e86c870879, 2021-01-15)"
   sodipodi:docname="GEOFORTE LOGO VETOR 02.svg">
  <defs
     id="defs133" />
  <sodipodi:namedview
     id="base"
     pagecolor="#ffffff"
     bordercolor="#666666"
     borderopacity="1.0"
     inkscape:pageopacity="0.0"
     inkscape:pageshadow="2"
     inkscape:zoom="2.8"
     inkscape:cx="352.97553"
     inkscape:cy="488.38549"
     inkscape:document-units="mm"
     inkscape:current-layer="layer1"
     inkscape:document-rotation="0"
     showgrid="false"
     inkscape:window-width="1758"
     inkscape:window-height="1030"
     inkscape:window-x="144"
     inkscape:window-y="0"
     inkscape:window-maximized="0" />
  <metadata
     id="metadata136">
    <rdf:RDF>
      <cc:Work
         rdf:about="">
        <dc:format>image/svg+xml</dc:format>
        <dc:type
           rdf:resource="http://purl.org/dc/dcmitype/StillImage" />
        <dc:title></dc:title>
      </cc:Work>
    </rdf:RDF>
  </metadata>
  <g
     inkscape:label="Layer 1"
     inkscape:groupmode="layer"
     id="layer1">
    <g
       id="g262"
       transform="translate(0.47247025,0.09449405)"
       inkscape:export-filename="D:\OneDrive John\OneDrive\Pictures\LOGO GEOFORTE VETOR PNG.png"
       inkscape:export-xdpi="96"
       inkscape:export-ydpi="96">
      <path
         style="fill:#ff7f2a;stroke:#ff7f2a;stroke-width:0.264583px;stroke-linecap:butt;stroke-linejoin:miter;stroke-opacity:1"
         d="m 44.93615,112.74599 c -0.581334,-0.48545 -1.026732,-0.79958 -2.670716,-1.39854 -1.02659,-0.24155 -2.15727,-0.31239 -3.723836,0.0253 -1.922723,0.69764 -1.817229,0.9049 -2.468516,1.30587 -1.467721,1.05738 -2.379082,2.47175 -2.878273,4.13411 -0.209906,1.01554 -0.356429,2.19915 -0.01992,3.71797 1.716573,4.45131 4.741964,5.43502 6.942174,5.69528 3.453662,-0.0138 5.88088,-2.45727 5.964878,-2.696 l -10.952459,-0.16849 1.078396,-10.46382 z"
         id="path22"
         sodipodi:nodetypes="ccccccccccc" />
      <path
         style="fill:#ff7f2a;stroke:#ff7f2a;stroke-width:0.264583px;stroke-linecap:butt;stroke-linejoin:miter;stroke-opacity:1"
         d="m 47.214504,115.83845 c 0.24585,0.34007 0.385732,0.89023 0.548077,1.45359 l -7.101165,-0.0238 -0.157183,1.93163 7.314927,-0.0253 c 0.115775,0.57191 -0.120125,1.14382 -0.294874,1.71572 l -9.150493,-0.0715 0.548076,-5.028 z"
         id="path24"
         sodipodi:nodetypes="ccccccccc" />
    </g>
    <path
       style="fill:#999999;stroke:#999999;stroke-width:0.275338px;stroke-linecap:butt;stroke-linejoin:miter;stroke-opacity:1"
       d="m 56.976277,118.41032 -1.862765,-0.0108 c -1.059407,-1.13857 -2.480665,-0.52777 -2.687565,0.94888 -0.143274,2.96983 2.98834,2.25963 3.218338,0.97625 l -0.994146,-0.008 0.02528,-1.02057 2.417967,-0.016 0.0084,2.91418 H 56.54745 v -0.71883 c -1.99578,1.66959 -5.376479,1.05674 -6.022206,-0.70617 -0.338464,-2.08834 0.01989,-2.72738 0.691723,-3.38689 0.638228,-0.62654 1.571187,-0.99415 2.792874,-0.95244 2.082113,0.16391 2.806043,1.17891 2.966435,1.98144 z"
       id="path28"
       sodipodi:nodetypes="cccccccccccsccc"
       inkscape:export-filename="D:\OneDrive John\OneDrive\Pictures\LOGO GEOFORTE VETOR PNG.png"
       inkscape:export-xdpi="96"
       inkscape:export-ydpi="96" />
    <ellipse
       style="fill:#999999;stroke:#999999;stroke-width:0.506201"
       id="path34"
       cx="68.220123"
       cy="119.50818"
       rx="3.3463702"
       ry="2.7387199"
       inkscape:export-filename="D:\OneDrive John\OneDrive\Pictures\LOGO GEOFORTE VETOR PNG.png"
       inkscape:export-xdpi="96"
       inkscape:export-ydpi="96" />
    <ellipse
       style="fill:#ffffff;stroke:#ffffff;stroke-width:0.273731"
       id="path34-7"
       cx="68.252693"
       cy="119.4597"
       rx="1.6020867"
       ry="1.6000119"
       inkscape:export-filename="D:\OneDrive John\OneDrive\Pictures\LOGO GEOFORTE VETOR PNG.png"
       inkscape:export-xdpi="96"
       inkscape:export-ydpi="96" />
    <ellipse
       style="fill:#999999;stroke:#999999;stroke-width:0.506201"
       id="path34-4"
       cx="81.814804"
       cy="119.50818"
       rx="3.3463702"
       ry="2.6195731"
       inkscape:export-filename="D:\OneDrive John\OneDrive\Pictures\LOGO GEOFORTE VETOR PNG.png"
       inkscape:export-xdpi="96"
       inkscape:export-ydpi="96" />
    <path
       style="fill:#999999;stroke:#999999;stroke-width:0.259948px;stroke-linecap:butt;stroke-linejoin:miter;stroke-opacity:1"
       d="m 104.8765,116.67182 c -5.194888,0 -5.194888,0 -5.194888,0 v 5.60239 h 5.225908 v -1.13109 h -3.34954 v -1.18409 h 2.57418 v -0.91901 h -2.55867 v -1.00737 h 3.33403 z"
       id="path30-8"
       inkscape:export-filename="D:\OneDrive John\OneDrive\Pictures\LOGO GEOFORTE VETOR PNG.png"
       inkscape:export-xdpi="96"
       inkscape:export-ydpi="96" />
    <path
       style="fill:#999999;stroke:#999999;stroke-width:0.264583px;stroke-linecap:butt;stroke-linejoin:miter;stroke-opacity:1"
       d="m 77.72613,116.7984 h -5.274032 v 5.41726 h 2.131517 v -1.97987 h 2.552767 v -1.17949 h -2.527491 v -1.0447 h 3.091963 z"
       id="path100"
       inkscape:export-filename="D:\OneDrive John\OneDrive\Pictures\LOGO GEOFORTE VETOR PNG.png"
       inkscape:export-xdpi="96"
       inkscape:export-ydpi="96" />
    <path
       style="fill:#999999;stroke:#999999;stroke-width:0.264583px;stroke-linecap:butt;stroke-linejoin:miter;stroke-opacity:1"
       d="m 93.110121,116.67203 v 1.39855 h 1.963018 l -0.04212,4.09453 h 1.819793 v -4.11138 h 1.971442 v -1.36485 z"
       id="path108"
       sodipodi:nodetypes="ccccccccc"
       inkscape:export-filename="D:\OneDrive John\OneDrive\Pictures\LOGO GEOFORTE VETOR PNG.png"
       inkscape:export-xdpi="96"
       inkscape:export-ydpi="96" />
    <ellipse
       style="fill:#ffffff;stroke:#ffffff;stroke-width:0.273731"
       id="path34-7-8"
       cx="81.808235"
       cy="119.39323"
       rx="1.6020867"
       ry="1.6000119"
       inkscape:export-filename="D:\OneDrive John\OneDrive\Pictures\LOGO GEOFORTE VETOR PNG.png"
       inkscape:export-xdpi="96"
       inkscape:export-ydpi="96" />
    <path
       style="fill:#999999;stroke:#999999;stroke-width:0.264583px;stroke-linecap:butt;stroke-linejoin:miter;stroke-opacity:1"
       d="m 86.144196,116.57399 -0.01685,5.44253 2.047267,0.008 -0.0084,-1.75239 1.929318,-0.008 c 0.192315,0.30009 0.168346,1.06595 0.176927,1.76082 h 2.030418 c 0.01103,-0.64607 0.0408,-1.27809 -0.03369,-1.98829 -0.03651,-0.196 -0.460565,-0.2434 -0.690848,-0.3033 l -0.02527,-0.5055 c 0.355627,-0.15031 0.692526,-0.3782 0.893048,-1.17107 -0.06047,-0.46538 -0.04448,-1.05877 -0.876196,-1.36485 -1.63621,-0.24997 -3.609589,-0.0879 -5.425708,-0.11795 z"
       id="path212"
       sodipodi:nodetypes="ccccccccccccc"
       inkscape:export-filename="D:\OneDrive John\OneDrive\Pictures\LOGO GEOFORTE VETOR PNG.png"
       inkscape:export-xdpi="96"
       inkscape:export-ydpi="96" />
    <path
       style="fill:#ffffff;stroke:#ffffff;stroke-width:0.264583px;stroke-linecap:butt;stroke-linejoin:miter;stroke-opacity:1"
       d="m 88.140914,117.80404 v 1.06997 h 1.861918 c 0.256273,-0.25137 0.400854,-0.70408 0,-1.07839 z"
       id="path214"
       sodipodi:nodetypes="ccccc"
       inkscape:export-filename="D:\OneDrive John\OneDrive\Pictures\LOGO GEOFORTE VETOR PNG.png"
       inkscape:export-xdpi="96"
       inkscape:export-ydpi="96" />
    <path
       style="fill:#999999;stroke:#999999;stroke-width:0.259948px;stroke-linecap:butt;stroke-linejoin:miter;stroke-opacity:1"
       d="m 63.62359,116.54478 c -5.194888,0 -5.194888,0 -5.194888,0 v 5.60239 h 5.225908 v -1.13109 h -3.34954 v -1.18409 h 2.57418 v -0.91901 h -2.55867 v -1.00737 h 3.33403 z"
       id="path30-8-5"
       inkscape:export-filename="D:\OneDrive John\OneDrive\Pictures\LOGO GEOFORTE VETOR PNG.png"
       inkscape:export-xdpi="96"
       inkscape:export-ydpi="96" />
  </g>
</svg>
